<svg width="98" height="130" viewBox="0 0 98 130" fill="none" xmlns="http://www.w3.org/2000/svg">
<g filter="url(#filter0_b_2_1436)">
<path d="M98 102.084V126.864C98 128.595 96.5919 130 94.8575 130H3.14246C1.4081 129.983 0 128.578 0 126.847V3.13604C0 1.40522 1.4081 0 3.14246 0H94.8575C96.5919 0 98 1.40522 98 3.13604V26.8706C98 28.6014 96.5919 30.0066 94.8575 30.0066H42.3631C40.6287 30.0066 39.2206 31.4118 39.2206 33.1426V45.7211C39.2206 47.4519 40.6287 48.8571 42.3631 48.8571H83.61C85.3443 48.8571 86.7524 50.2623 86.7524 51.9931V74.5795C86.7524 76.3103 85.3443 77.7155 83.61 77.7155H42.3631C40.6287 77.7155 39.2206 79.1208 39.2206 80.8516V95.812C39.2206 97.5428 40.6287 98.9481 42.3631 98.9481H94.8575C96.5919 98.9481 98 100.353 98 102.084Z" fill="#EA571E" fill-opacity="0.1"/>
<path d="M97 102.084V126.864C97 128.041 96.0415 129 94.8575 129H3.14811C1.95644 128.986 1 128.02 1 126.847V3.13604C1 1.95943 1.95845 1 3.14246 1H94.8575C96.0415 1 97 1.95943 97 3.13604V26.8706C97 28.0472 96.0415 29.0066 94.8575 29.0066H42.3631C40.0783 29.0066 38.2206 30.8576 38.2206 33.1426V45.7211C38.2206 48.0061 40.0783 49.8571 42.3631 49.8571H83.61C84.794 49.8571 85.7524 50.8165 85.7524 51.9931V74.5795C85.7524 75.7561 84.794 76.7155 83.61 76.7155H42.3631C40.0783 76.7155 38.2206 78.5665 38.2206 80.8516V95.812C38.2206 98.0971 40.0783 99.9481 42.3631 99.9481H94.8575C96.0415 99.9481 97 100.907 97 102.084Z" stroke="#230C0C" stroke-opacity="0.6" stroke-width="2"/>
<path d="M97 102.084V126.864C97 128.041 96.0415 129 94.8575 129H3.14811C1.95644 128.986 1 128.02 1 126.847V3.13604C1 1.95943 1.95845 1 3.14246 1H94.8575C96.0415 1 97 1.95943 97 3.13604V26.8706C97 28.0472 96.0415 29.0066 94.8575 29.0066H42.3631C40.0783 29.0066 38.2206 30.8576 38.2206 33.1426V45.7211C38.2206 48.0061 40.0783 49.8571 42.3631 49.8571H83.61C84.794 49.8571 85.7524 50.8165 85.7524 51.9931V74.5795C85.7524 75.7561 84.794 76.7155 83.61 76.7155H42.3631C40.0783 76.7155 38.2206 78.5665 38.2206 80.8516V95.812C38.2206 98.0971 40.0783 99.9481 42.3631 99.9481H94.8575C96.0415 99.9481 97 100.907 97 102.084Z" stroke="url(#paint0_linear_2_1436)" stroke-opacity="0.5" stroke-width="2"/>
</g>
<path d="M97.5 102.084V126.864C97.5 128.318 96.3167 129.5 94.8575 129.5H3.14447C1.68182 129.484 0.5 128.299 0.5 126.847V3.13604C0.5 1.68233 1.68327 0.5 3.14246 0.5H94.8575C96.3167 0.5 97.5 1.68233 97.5 3.13604V26.8706C97.5 28.3243 96.3167 29.5066 94.8575 29.5066H42.3631C40.3535 29.5066 38.7206 31.1347 38.7206 33.1426V45.7211C38.7206 47.729 40.3535 49.3571 42.3631 49.3571H83.61C85.0691 49.3571 86.2524 50.5394 86.2524 51.9931V74.5795C86.2524 76.0332 85.0691 77.2155 83.61 77.2155H42.3631C40.3535 77.2155 38.7206 78.8436 38.7206 80.8516V95.812C38.7206 97.82 40.3535 99.4481 42.3631 99.4481H94.8575C96.3167 99.4481 97.5 100.63 97.5 102.084Z" stroke="url(#paint1_linear_2_1436)" stroke-opacity="0.75"/>
<defs>
<filter id="filter0_b_2_1436" x="-20" y="-20" width="138" height="170" filterUnits="userSpaceOnUse" color-interpolation-filters="sRGB">
<feFlood flood-opacity="0" result="BackgroundImageFix"/>
<feGaussianBlur in="BackgroundImageFix" stdDeviation="10"/>
<feComposite in2="SourceAlpha" operator="in" result="effect1_backgroundBlur_2_1436"/>
<feBlend mode="normal" in="SourceGraphic" in2="effect1_backgroundBlur_2_1436" result="shape"/>
</filter>
<linearGradient id="paint0_linear_2_1436" x1="49" y1="0" x2="49" y2="130" gradientUnits="userSpaceOnUse">
<stop stop-color="white"/>
<stop offset="0.307752" stop-color="white" stop-opacity="0"/>
</linearGradient>
<linearGradient id="paint1_linear_2_1436" x1="49" y1="0" x2="49" y2="130" gradientUnits="userSpaceOnUse">
<stop offset="0.524876" stop-color="white"/>
<stop offset="0.905951" stop-color="white" stop-opacity="0"/>
</linearGradient>
</defs>
</svg>
